<svg width="523" height="60" viewBox="0 0 523 60" fill="none" xmlns="http://www.w3.org/2000/svg">
<path d="M483.464 58.4798H474.264V1.27979H497.144C501.09 1.27979 504.557 1.99979 507.544 3.43979C510.53 4.82645 512.85 6.79978 514.504 9.35979C516.21 11.8665 517.064 14.8265 517.064 18.2398C517.064 21.5998 516.21 24.5598 514.504 27.1198C512.85 29.6798 510.53 31.6798 507.544 33.1198C504.557 34.5065 501.09 35.1998 497.144 35.1998H482.664V27.3598H497.144C500.397 27.3598 502.957 26.5598 504.824 24.9598C506.744 23.3064 507.704 21.0665 507.704 18.2398C507.704 15.4131 506.744 13.1998 504.824 11.5998C502.957 9.94645 500.397 9.11978 497.144 9.11978H483.464V58.4798ZM522.824 58.4798H511.384L490.584 31.8398H501.144L522.824 58.4798Z" fill="url(#paint0_linear_48_3)"/>
<path d="M464.561 58.4798H425.201V1.27979H464.561V9.11978H434.401V50.6398H464.561V58.4798ZM463.041 33.3598H433.601V25.5198H463.041V33.3598Z" fill="url(#paint1_linear_48_3)"/>
<path d="M398.11 58.4798H388.91V8.39978H398.11V58.4798ZM416.43 9.19978H370.67V1.27979H416.43V9.19978Z" fill="url(#paint2_linear_48_3)"/>
<path d="M322.831 58.4798H313.871V1.27979H323.631L356.111 49.4398H352.991V1.27979H361.951V58.4798H352.191L319.631 10.3198H322.831V58.4798Z" fill="url(#paint3_linear_48_3)"/>
<path d="M304.249 58.4798H264.889V1.27979H304.249V9.11978H274.089V50.6398H304.249V58.4798ZM302.729 33.3598H273.289V25.5198H302.729V33.3598Z" fill="url(#paint4_linear_48_3)"/>
<path d="M249.685 42.8L255.845 48.96C253.338 52.2667 250.058 54.9067 246.005 56.88C242.005 58.8 237.578 59.76 232.725 59.76C228.405 59.76 224.432 59.0133 220.805 57.52C217.232 56.0267 214.112 53.9467 211.445 51.28C208.832 48.6133 206.778 45.4667 205.285 41.84C203.845 38.16 203.125 34.1867 203.125 29.92C203.125 25.6 203.872 21.6267 205.365 18C206.858 14.32 208.938 11.1467 211.605 8.48C214.325 5.81333 217.498 3.73333 221.125 2.24C224.752 0.746665 228.698 0 232.965 0C237.818 0 242.218 0.986666 246.165 2.96C250.112 4.88 253.338 7.49333 255.845 10.8L249.685 16.96C247.818 14.24 245.472 12.1067 242.645 10.56C239.818 8.96 236.592 8.16 232.965 8.16C229.125 8.16 225.685 9.12 222.645 11.04C219.605 12.9067 217.205 15.4667 215.445 18.72C213.685 21.9733 212.805 25.7067 212.805 29.92C212.805 34.08 213.685 37.7867 215.445 41.04C217.205 44.2933 219.605 46.88 222.645 48.8C225.685 50.6667 229.125 51.6 232.965 51.6C236.592 51.6 239.818 50.8 242.645 49.2C245.472 47.6 247.818 45.4667 249.685 42.8Z" fill="url(#paint5_linear_48_3)"/>
<path d="M160.343 58.4798H151.143V34.6398L129.463 1.27979H140.263L156.823 28.0798H154.743L171.383 1.27979H182.023L160.343 34.7198V58.4798Z" fill="url(#paint6_linear_48_3)"/>
<path d="M107.172 58.4798H97.9724V8.39978H107.172V58.4798ZM125.492 9.19978H79.7324V1.27979H125.492V9.19978Z" fill="url(#paint7_linear_48_3)"/>
<path d="M70.9637 58.4798H61.7637V1.27979H70.9637V58.4798Z" fill="url(#paint8_linear_48_3)"/>
<path d="M46.56 42.8L52.72 48.96C50.2133 52.2667 46.9333 54.9067 42.88 56.88C38.88 58.8 34.4533 59.76 29.6 59.76C25.28 59.76 21.3067 59.0133 17.68 57.52C14.1067 56.0267 10.9867 53.9467 8.32 51.28C5.70667 48.6133 3.65333 45.4667 2.16 41.84C0.72 38.16 0 34.1867 0 29.92C0 25.6 0.746667 21.6267 2.24 18C3.73333 14.32 5.81333 11.1467 8.48 8.48C11.2 5.81333 14.3733 3.73333 18 2.24C21.6267 0.746665 25.5733 0 29.84 0C34.6933 0 39.0933 0.986666 43.04 2.96C46.9867 4.88 50.2133 7.49333 52.72 10.8L46.56 16.96C44.6933 14.24 42.3467 12.1067 39.52 10.56C36.6933 8.96 33.4667 8.16 29.84 8.16C26 8.16 22.56 9.12 19.52 11.04C16.48 12.9067 14.08 15.4667 12.32 18.72C10.56 21.9733 9.68 25.7067 9.68 29.92C9.68 34.08 10.56 37.7867 12.32 41.04C14.08 44.2933 16.48 46.88 19.52 48.8C22.56 50.6667 26 51.6 29.84 51.6C33.4667 51.6 36.6933 50.8 39.52 49.2C42.3467 47.6 44.6933 45.4667 46.56 42.8Z" fill="url(#paint9_linear_48_3)"/>
<defs>
<linearGradient id="paint0_linear_48_3" x1="367.34" y1="-40.4091" x2="367.34" y2="83.5909" gradientUnits="userSpaceOnUse">
<stop stop-color="#222222"/>
<stop offset="1" stop-color="#6D6D6D"/>
</linearGradient>
<linearGradient id="paint1_linear_48_3" x1="367.34" y1="-40.4091" x2="367.34" y2="83.5909" gradientUnits="userSpaceOnUse">
<stop stop-color="#222222"/>
<stop offset="1" stop-color="#6D6D6D"/>
</linearGradient>
<linearGradient id="paint2_linear_48_3" x1="367.341" y1="-40.4091" x2="367.341" y2="83.5909" gradientUnits="userSpaceOnUse">
<stop stop-color="#222222"/>
<stop offset="1" stop-color="#6D6D6D"/>
</linearGradient>
<linearGradient id="paint3_linear_48_3" x1="367.34" y1="-40.4091" x2="367.34" y2="83.5909" gradientUnits="userSpaceOnUse">
<stop stop-color="#222222"/>
<stop offset="1" stop-color="#6D6D6D"/>
</linearGradient>
<linearGradient id="paint4_linear_48_3" x1="367.34" y1="-40.4091" x2="367.34" y2="83.5909" gradientUnits="userSpaceOnUse">
<stop stop-color="#222222"/>
<stop offset="1" stop-color="#6D6D6D"/>
</linearGradient>
<linearGradient id="paint5_linear_48_3" x1="367.34" y1="-40.4089" x2="367.34" y2="83.5911" gradientUnits="userSpaceOnUse">
<stop stop-color="#222222"/>
<stop offset="1" stop-color="#6D6D6D"/>
</linearGradient>
<linearGradient id="paint6_linear_48_3" x1="367.339" y1="-40.4091" x2="367.339" y2="83.5909" gradientUnits="userSpaceOnUse">
<stop stop-color="#222222"/>
<stop offset="1" stop-color="#6D6D6D"/>
</linearGradient>
<linearGradient id="paint7_linear_48_3" x1="367.341" y1="-40.4091" x2="367.341" y2="83.5909" gradientUnits="userSpaceOnUse">
<stop stop-color="#222222"/>
<stop offset="1" stop-color="#6D6D6D"/>
</linearGradient>
<linearGradient id="paint8_linear_48_3" x1="367.34" y1="-40.4091" x2="367.34" y2="83.5909" gradientUnits="userSpaceOnUse">
<stop stop-color="#222222"/>
<stop offset="1" stop-color="#6D6D6D"/>
</linearGradient>
<linearGradient id="paint9_linear_48_3" x1="367.34" y1="-40.4089" x2="367.34" y2="83.5911" gradientUnits="userSpaceOnUse">
<stop stop-color="#222222"/>
<stop offset="1" stop-color="#6D6D6D"/>
</linearGradient>
</defs>
</svg>
