<svg width="15" height="12" viewBox="0 0 15 12" fill="none" xmlns="http://www.w3.org/2000/svg">
<path fill-rule="evenodd" clip-rule="evenodd" d="M6.88818 0.300018C6.57062 -0.0642391 6.01785 -0.102098 5.65362 0.215457L0.300601 4.88215C0.110084 5.04828 0.00065136 5.28885 0.00065136 5.54166C0.00065136 5.7946 0.110084 6.03505 0.300601 6.20118L5.65362 10.8678C6.01785 11.1854 6.57062 11.1476 6.88818 10.7834C7.20575 10.419 7.16784 9.86638 6.8036 9.54881L3.21085 6.41666L13.709 6.41666C14.1922 6.41666 14.584 6.0249 14.584 5.54166C14.584 5.05843 14.1922 4.66666 13.709 4.66666L3.21085 4.66666L6.8036 1.53456C7.16784 1.21701 7.20575 0.664274 6.88818 0.300018Z" fill="white"/>
</svg>
