<svg width="15" height="12" viewBox="0 0 15 12" fill="none" xmlns="http://www.w3.org/2000/svg">
<path fill-rule="evenodd" clip-rule="evenodd" d="M7.6958 0.300018C8.01337 -0.0642391 8.56613 -0.102098 8.93037 0.215457L14.2834 4.88215C14.4739 5.04828 14.5833 5.28885 14.5833 5.54166C14.5833 5.7946 14.4739 6.03505 14.2834 6.20118L8.93037 10.8678C8.56613 11.1854 8.01337 11.1476 7.6958 10.7834C7.37823 10.419 7.41615 9.86638 7.78038 9.54881L11.3731 6.41666L0.875 6.41666C0.391755 6.41666 0 6.0249 0 5.54166C0 5.05843 0.391755 4.66666 0.875 4.66666L11.3731 4.66666L7.78038 1.53456C7.41615 1.21701 7.37823 0.664274 7.6958 0.300018Z" fill="#222222"/>
</svg>
