<svg width="178" height="21" viewBox="0 0 178 21" fill="none" xmlns="http://www.w3.org/2000/svg">
<path d="M163.913 20.468H161.225V0.447998H169.121C170.483 0.447998 171.669 0.690665 172.677 1.176C173.685 1.66133 174.469 2.33333 175.029 3.192C175.607 4.05066 175.897 5.05866 175.897 6.216C175.897 7.37333 175.607 8.38133 175.029 9.24C174.469 10.0987 173.685 10.7707 172.677 11.256C171.669 11.7413 170.483 11.984 169.121 11.984H163.633V9.66H169.121C170.371 9.66 171.351 9.36133 172.061 8.764C172.789 8.148 173.153 7.29866 173.153 6.216C173.153 5.13333 172.789 4.29333 172.061 3.696C171.351 3.08 170.371 2.772 169.121 2.772H163.913V20.468ZM177.885 20.468H174.497L166.993 11.144H170.129L177.885 20.468Z" fill="url(#paint0_linear_48_15)"/>
<path d="M157.995 20.468H144.471V0.447998H157.995V2.772H147.159V18.144H157.995V20.468ZM157.463 11.424H146.879V9.1H157.463V11.424Z" fill="url(#paint1_linear_48_15)"/>
<path d="M135.011 20.468H132.323V2.52H135.011V20.468ZM141.563 2.8H125.799V0.447998H141.563V2.8Z" fill="url(#paint2_linear_48_15)"/>
<path d="M109.079 20.468H106.475V0.447998H109.359L121.063 17.696H120.307V0.447998H122.911V20.468H120.027L108.295 3.22H109.079V20.468Z" fill="url(#paint3_linear_48_15)"/>
<path d="M103.272 20.468H89.748V0.447998H103.272V2.772H92.4361V18.144H103.272V20.468ZM102.74 11.424H92.1561V9.1H102.74V11.424Z" fill="url(#paint4_linear_48_15)"/>
<path d="M84.8429 15.316L86.7189 17.136C85.8416 18.2933 84.7029 19.2173 83.3029 19.908C81.9029 20.58 80.3629 20.916 78.6829 20.916C77.2082 20.916 75.8456 20.6547 74.5949 20.132C73.3629 19.6093 72.2896 18.8813 71.3749 17.948C70.4602 16.996 69.7416 15.8853 69.2189 14.616C68.7149 13.3467 68.4629 11.9653 68.4629 10.472C68.4629 8.97867 68.7242 7.59733 69.2469 6.328C69.7696 5.04 70.4882 3.92933 71.4029 2.996C72.3362 2.044 73.4282 1.30667 74.6789 0.784C75.9296 0.261334 77.2922 0 78.7669 0C80.4282 0 81.9496 0.345334 83.3309 1.036C84.7122 1.708 85.8416 2.62267 86.7189 3.78L84.8429 5.6C84.1709 4.62933 83.3216 3.85467 82.2949 3.276C81.2682 2.69733 80.0922 2.408 78.7669 2.408C77.3482 2.408 76.0696 2.76267 74.9309 3.472C73.8109 4.16267 72.9242 5.11467 72.2709 6.328C71.6176 7.52267 71.2909 8.904 71.2909 10.472C71.2909 12.0027 71.6176 13.3747 72.2709 14.588C72.9242 15.8013 73.8109 16.7627 74.9309 17.472C76.0696 18.1627 77.3482 18.508 78.7669 18.508C80.0922 18.508 81.2682 18.2187 82.2949 17.64C83.3216 17.0613 84.1709 16.2867 84.8429 15.316Z" fill="url(#paint5_linear_48_15)"/>
<path d="M54.0631 20.468H51.3751V11.872L43.8711 0.447998H47.0071L53.1111 10.136H52.3831L58.5151 0.447998H61.5671L54.0631 11.928V20.468Z" fill="url(#paint6_linear_48_15)"/>
<path d="M36.1475 20.468H33.4595V2.52H36.1475V20.468ZM42.6995 2.8H26.9355V0.447998H42.6995V2.8Z" fill="url(#paint7_linear_48_15)"/>
<path d="M23.9732 20.468H21.2852V0.447998H23.9732V20.468Z" fill="url(#paint8_linear_48_15)"/>
<path d="M16.38 15.316L18.256 17.136C17.3787 18.2933 16.24 19.2173 14.84 19.908C13.44 20.58 11.9 20.916 10.22 20.916C8.74533 20.916 7.38267 20.6547 6.132 20.132C4.9 19.6093 3.82667 18.8813 2.912 17.948C1.99733 16.996 1.27867 15.8853 0.756 14.616C0.252 13.3467 0 11.9653 0 10.472C0 8.97867 0.261333 7.59733 0.784 6.328C1.30667 5.04 2.02533 3.92933 2.94 2.996C3.87333 2.044 4.96533 1.30667 6.216 0.784C7.46667 0.261334 8.82933 0 10.304 0C11.9653 0 13.4867 0.345334 14.868 1.036C16.2493 1.708 17.3787 2.62267 18.256 3.78L16.38 5.6C15.708 4.62933 14.8587 3.85467 13.832 3.276C12.8053 2.69733 11.6293 2.408 10.304 2.408C8.88533 2.408 7.60667 2.76267 6.468 3.472C5.348 4.16267 4.46133 5.11467 3.808 6.328C3.15467 7.52267 2.828 8.904 2.828 10.472C2.828 12.0027 3.15467 13.3747 3.808 14.588C4.46133 15.8013 5.348 16.7627 6.468 17.472C7.60667 18.1627 8.88533 18.508 10.304 18.508C11.6293 18.508 12.8053 18.2187 13.832 17.64C14.8587 17.0613 15.708 16.2867 16.38 15.316Z" fill="url(#paint9_linear_48_15)"/>
<defs>
<linearGradient id="paint0_linear_48_15" x1="-1.48492" y1="9.468" x2="178.515" y2="9.468" gradientUnits="userSpaceOnUse">
<stop stop-color="white"/>
<stop offset="1" stop-color="#B1B1B1"/>
</linearGradient>
<linearGradient id="paint1_linear_48_15" x1="-1.48367" y1="9.468" x2="178.516" y2="9.468" gradientUnits="userSpaceOnUse">
<stop stop-color="white"/>
<stop offset="1" stop-color="#B1B1B1"/>
</linearGradient>
<linearGradient id="paint2_linear_48_15" x1="-1.48413" y1="9.468" x2="178.516" y2="9.468" gradientUnits="userSpaceOnUse">
<stop stop-color="white"/>
<stop offset="1" stop-color="#B1B1B1"/>
</linearGradient>
<linearGradient id="paint3_linear_48_15" x1="-1.48444" y1="9.468" x2="178.516" y2="9.468" gradientUnits="userSpaceOnUse">
<stop stop-color="white"/>
<stop offset="1" stop-color="#B1B1B1"/>
</linearGradient>
<linearGradient id="paint4_linear_48_15" x1="-1.48383" y1="9.468" x2="178.516" y2="9.468" gradientUnits="userSpaceOnUse">
<stop stop-color="white"/>
<stop offset="1" stop-color="#B1B1B1"/>
</linearGradient>
<linearGradient id="paint5_linear_48_15" x1="-1.48437" y1="9.468" x2="178.516" y2="9.468" gradientUnits="userSpaceOnUse">
<stop stop-color="white"/>
<stop offset="1" stop-color="#B1B1B1"/>
</linearGradient>
<linearGradient id="paint6_linear_48_15" x1="-1.48432" y1="9.468" x2="178.516" y2="9.468" gradientUnits="userSpaceOnUse">
<stop stop-color="white"/>
<stop offset="1" stop-color="#B1B1B1"/>
</linearGradient>
<linearGradient id="paint7_linear_48_15" x1="-1.48445" y1="9.468" x2="178.516" y2="9.468" gradientUnits="userSpaceOnUse">
<stop stop-color="white"/>
<stop offset="1" stop-color="#B1B1B1"/>
</linearGradient>
<linearGradient id="paint8_linear_48_15" x1="-1.48343" y1="9.468" x2="178.517" y2="9.468" gradientUnits="userSpaceOnUse">
<stop stop-color="white"/>
<stop offset="1" stop-color="#B1B1B1"/>
</linearGradient>
<linearGradient id="paint9_linear_48_15" x1="-1.48399" y1="9.468" x2="178.516" y2="9.468" gradientUnits="userSpaceOnUse">
<stop stop-color="white"/>
<stop offset="1" stop-color="#B1B1B1"/>
</linearGradient>
</defs>
</svg>
