<svg width="156" height="57" viewBox="0 0 156 57" fill="none" xmlns="http://www.w3.org/2000/svg">
<path fill-rule="evenodd" clip-rule="evenodd" d="M10.5989 0L7.94755 7.3981H44.6899L47.3412 0H10.5989ZM6.62103 11.0955L3.96964 18.4919H40.7119L43.3633 11.0955H6.62103ZM2.65139 22.1909L0 29.5874H36.7423L39.392 22.1909H2.65139Z" fill="#C3C9CD"/>
<mask id="mask0_1_1068" style="mask-type:luminance" maskUnits="userSpaceOnUse" x="55" y="11" width="101" height="46">
<path d="M55.125 56.5558H155.703V11.2378H55.125V56.5558Z" fill="white"/>
</mask>
<g mask="url(#mask0_1_1068)">
<path fill-rule="evenodd" clip-rule="evenodd" d="M78.1116 32.4067V32.5628C79.7908 33.1906 81.3947 34.2884 82.2351 34.9934C84.8315 37.189 85.9777 40.0897 85.9777 43.8531C85.9777 50.0489 82.7698 54.5173 77.5001 55.929C75.8962 56.399 74.217 56.5568 71.0843 56.5568H55.125V11.2378H69.2531C72.1553 11.2378 74.1402 11.3939 75.8962 11.8639C81.0138 13.2756 84.3737 16.8829 84.3737 22.6053C84.3737 25.6637 83.3044 28.2522 81.5484 29.9761C80.7849 30.76 79.7156 31.7017 78.1116 32.4067ZM63.9835 37.189V49.1071H70.0936C71.9247 49.1071 73.6055 48.951 74.8286 47.7743C76.0499 46.5976 76.5846 45.1087 76.5846 43.1481C76.5846 41.6592 76.2019 40.2475 75.4384 39.2286C74.1402 37.5818 72.5362 37.189 69.7878 37.189H63.9835ZM63.9066 29.3483H68.8705C70.3976 29.3483 71.1612 29.3483 71.9247 29.1133C73.9882 28.4854 75.2864 26.6054 75.2864 24.017C75.2864 20.9603 73.9113 19.6258 71.9247 18.9997C71.0843 18.7647 70.2456 18.6858 68.5648 18.6858H63.9066V29.3483ZM99.2654 56.5568V18.8419H86.5123V11.2378H121.948L119.428 18.8419H108.124V56.5568H99.2654ZM124.696 56.5568V11.2378H153.412L150.893 18.8419H133.48V28.8783H140.582C146.31 28.8783 149.289 30.29 151.35 32.0928C152.954 33.5045 155.703 36.6401 155.703 42.8359C155.703 48.951 152.878 52.3217 150.51 54.0473C147.762 56.0062 144.859 56.5568 138.978 56.5568H124.696ZM133.48 48.951H140.124C142.644 48.951 144.171 48.3232 145.24 46.9115C145.775 46.2065 146.539 44.9509 146.539 42.5992C146.539 40.2475 145.775 38.6007 144.248 37.424C143.332 36.719 142.109 36.3279 140.048 36.3279H133.48V48.951Z" fill="#C3C9CD"/>
</g>
</svg>
