<svg width="172" height="83" viewBox="0 0 172 83" fill="none" xmlns="http://www.w3.org/2000/svg">
<path d="M53.1243 25.3365H64.0403V28.8828H58.8476V53.7995H53.1243V25.3365ZM70.5121 43.1142L71.493 28.8828H71.8215L72.8023 43.1142H70.5121ZM64.1741 53.7995H69.7777L70.3078 46.2404H73.0064L73.539 53.7995H79.1401L76.1554 25.3365H67.1587L64.1741 53.7995ZM87.3367 43.8376V49.2033C87.3367 49.9266 87.8999 50.1366 88.2284 50.1366C88.768 50.1366 89.1435 49.6933 89.1435 49.2033V42.578C89.1435 41.6912 88.9791 40.7114 86.8439 40.7114H84.5207V37.5853H86.9377C88.5568 37.5853 89.1435 37.212 89.1435 35.4621V29.816C89.1435 29.326 88.768 28.8828 88.2281 28.8828C87.8999 28.8828 87.3367 29.0693 87.3367 29.816V34.4587H81.6109V30.4227C81.6109 28.4395 81.8456 25.3365 85.8579 25.3365H90.598C94.6106 25.3365 94.8688 28.4395 94.8688 30.4227V34.9718C94.8688 38.0748 92.6865 38.9148 90.9735 38.8447V39.1248C94.8218 39.0315 94.8688 41.9708 94.8688 42.9742V48.7135C94.8688 50.7198 94.6106 53.7995 90.598 53.7995H85.8579C81.8456 53.7995 81.6109 50.7196 81.6109 48.7133V43.8376H87.3367ZM98.6234 25.3365H111.881V53.7995H106.156V28.8828H104.349V53.7995H98.6234V25.3365ZM121.361 40.9913V28.883H122.112C122.722 28.883 123.168 29.3959 123.168 30.3061V39.568C123.168 40.4781 122.722 40.991 122.112 40.991L121.361 40.9913ZM115.636 53.7995H121.361V44.1174H124.646C128.635 44.1174 128.894 41.0378 128.894 39.0312V30.4227C128.894 28.4395 128.635 25.3365 124.646 25.3365H115.636V53.7995ZM140.18 49.2033C140.18 49.6933 139.805 50.1366 139.265 50.1366C138.936 50.1366 138.374 49.9266 138.374 49.2033V29.816C138.374 29.0693 138.937 28.8828 139.265 28.8828C139.805 28.8828 140.18 29.326 140.18 29.816V49.2033ZM132.648 48.7135C132.648 50.7198 132.906 53.7995 136.895 53.7995H141.659C145.648 53.7995 145.906 50.7196 145.906 48.7133V30.4227C145.906 28.4395 145.648 25.3365 141.659 25.3365H136.895C132.906 25.3365 132.648 28.4395 132.648 30.4227V48.7135ZM164.537 25.3365H171.999V53.7995H166.274V35.9519H166.062L163.106 53.7995H158.53L155.597 35.9519H155.386V53.7995H149.66V25.3365H157.099L160.83 45.3539L164.537 25.3365ZM45.7045 14.8381C43.9518 7.20913 39.5589 1.00341 38.9536 0C37.9962 1.42302 34.4929 6.90592 32.7119 12.9716C30.7666 19.7606 30.4803 25.7798 31.1517 31.6823C31.818 37.6082 34.3356 43.6975 34.3356 43.6975C35.6733 46.8704 37.6771 50.2997 38.9819 51.9797C40.8941 49.5068 45.2893 42.1342 46.6596 32.5223C47.4223 27.1563 47.4551 22.4671 45.7045 14.8381ZM38.9536 50.0667C38.0925 48.4568 36.7548 45.4004 36.6281 40.641C36.5953 36.0685 38.442 32.1256 38.9819 31.3092C39.4629 32.1258 41.0537 35.5551 41.2438 40.2446C41.3728 44.8173 39.8429 48.4332 38.9536 50.0667ZM45.1955 27.7861C45.1297 30.7025 44.78 33.7821 44.3342 35.6253C44.4938 32.4524 44.1114 27.9963 43.3791 24.4968C42.647 21.0205 40.575 15.1881 38.9209 12.505C37.3933 15.0714 35.5112 20.1106 34.5258 24.4734C33.5355 28.836 33.5074 34.1321 33.5074 35.7186C33.2445 34.3886 32.5875 29.6061 32.7729 24.8234C32.9279 20.8807 33.8569 16.7979 34.3662 14.9314C36.309 8.70229 38.5078 4.71281 38.9207 4.08276C39.3339 4.71281 42.1026 9.63555 43.5387 14.7914C44.9679 19.9474 45.2564 24.893 45.1955 27.7861Z" fill="#C3C9CD"/>
<path d="M41.9276 53.7526H28.6017V62.6414C28.6136 62.6414 28.6229 62.618 28.6346 62.618C31.7742 59.4919 36.8663 59.4919 40.0083 62.618C43.1479 65.721 43.1479 70.7836 40.0083 73.9099C39.9941 73.9331 39.9799 73.9331 39.966 73.9564C39.9496 73.9564 39.9332 73.9798 39.919 74.0032C36.7864 77.0828 32.6942 78.6225 28.6017 78.6225C24.4907 78.6225 20.3795 77.0828 17.2447 73.9564C11.7161 68.4738 11.0614 59.9583 15.2758 53.7526C15.8544 52.8988 16.5136 52.102 17.2447 51.3729C20.3795 48.2468 24.4907 46.7069 28.6017 46.7069V25.3364C12.805 25.3364 0 38.0513 0 53.7526C0 69.4538 12.805 82.1921 28.6017 82.1921C36.838 82.1921 44.2578 78.7158 49.4763 73.1866V53.7526H41.9276ZM172 62.115H53.1253V82.1921H172V62.115ZM161.721 76.1309H163.229V73.1004H161.721V76.1309ZM161.721 70.8276H164.003L165.531 71.5853L165.908 72.3428L166.285 73.8581V74.6156C166.245 80.0435 162.733 78.0565 159.042 78.404V65.903H161.721V70.8276ZM141.896 65.903V68.1759H139.991V78.404H136.955V68.1759H135.05V65.903H141.896ZM114.095 74.9945H114.472L115.226 74.6156V69.3123H114.095V74.9945ZM111.039 69.3125H109.888V74.6156L110.661 74.9945H111.039V69.3125ZM114.095 65.903V67.0394H116L117.131 67.797L117.905 68.5547L118.282 70.07V74.237L117.905 75.7523L117.131 76.5098L116 77.2673H114.095V78.4037H111.039V77.2673H109.134L107.983 76.5098L107.229 75.7523L106.852 74.237V70.07L107.228 68.5547L107.983 67.797L109.134 67.0394H111.039V65.903H114.095ZM89.3212 65.903V68.1759H87.0353V70.8276H89.3212V73.1004H87.0353V76.1309H89.7023V78.4037H83.9871V65.903H89.3212ZM61.8886 70.8276H63.4126V65.903H66.0797V78.404H63.4126V73.1004H61.8886V78.404H58.8405V65.903H61.8886V70.8276Z" fill="#C3C9CD"/>
</svg>
