<svg width="242" height="48" viewBox="0 0 242 48" fill="none" xmlns="http://www.w3.org/2000/svg">
<g clip-path="url(#clip0_1_1050)">
<path d="M23.7661 0C10.6407 0 0 10.7446 0 23.9963C0 37.2485 10.6407 47.9986 23.7661 47.9986C36.8897 47.9986 47.5357 37.2485 47.5357 23.9963C47.5357 10.7446 36.8897 0 23.7661 0ZM20.3943 34.2062L18.6424 39.4517C12.0581 37.2095 7.63495 30.9562 7.63495 23.8909C7.63495 16.8173 12.0667 10.5619 18.6622 8.32569L20.4077 13.5744C16.0471 15.0527 13.1178 19.1984 13.1178 23.8909C13.1178 28.5783 16.0423 32.7237 20.3943 34.2062ZM28.5694 39.5577L26.9277 34.2754C31.4077 32.8557 34.4179 28.6823 34.4179 23.8909C34.4179 19.1595 31.4558 15.0028 27.0465 13.548L28.7504 8.28516C35.4197 10.4862 39.9007 16.7579 39.9007 23.8909C39.9007 31.1141 35.3469 37.4102 28.5694 39.5577Z" fill="#C3C9CD"/>
<path d="M238.008 27.9793L240.607 31.1216C237.951 33.9468 234.583 34.7251 231.899 34.7251C229.358 34.7251 227.445 34.3216 225.875 33.5143C222.42 31.7847 220.678 28.2676 220.678 24.0009C220.678 17.5145 225.018 12.7866 231.413 12.7866C238.493 12.7866 241.948 18.1488 241.491 25.1252L225.275 25.154C225.361 26.9126 226.36 28.5847 227.759 29.4207C228.929 30.1415 230.3 30.5162 232.184 30.5162C234.154 30.5162 236.21 29.8243 238.008 27.9793ZM225.333 21.3775H236.781C236.495 18.8406 234.44 16.7073 231.128 16.7073C227.759 16.7073 225.732 19.0712 225.333 21.3775ZM116.501 34.1774H122.354L113.16 23.4244L122.21 13.3056H116.443L109.534 21.4063H107.508V13.3056H103.025V34.1774H107.508V25.8748H109.564L116.501 34.1774ZM135.543 17.0533C131.804 17.0533 129.32 19.9938 129.32 23.7415C129.32 27.4892 131.804 30.4297 135.543 30.4297C139.37 30.4297 141.739 27.5468 141.739 23.7415C141.739 20.0226 139.426 17.0533 135.543 17.0533ZM136.314 12.7866C142.139 12.7866 146.421 17.3992 146.421 23.7415C146.421 29.9972 142.167 34.7251 136.314 34.7251C133.459 34.7251 131.232 33.7449 129.633 31.9864V42.8548H125.123V13.3056H129.52V15.8137C131.232 13.738 133.459 12.7866 136.314 12.7866ZM195.155 13.3056H176.655V17.4857H183.65V34.1774H188.161V17.4857H195.155V13.3056ZM99.9136 13.3056H81.4133V17.4857H88.408V34.1774H92.9189V17.4857H99.9136V13.3056ZM75.9318 23.7415C75.9318 19.8496 73.191 16.9668 69.4796 16.9668C65.7966 16.9668 63.0274 19.7632 63.0274 23.7415C63.0274 27.6621 65.711 30.545 69.4796 30.545C73.1625 30.545 75.9318 27.6909 75.9318 23.7415ZM58.4023 23.7415C58.4023 17.4857 63.1986 12.7866 69.4796 12.7866C75.7605 12.7866 80.5568 17.4857 80.5568 23.7415C80.5568 29.9972 75.7605 34.7251 69.4796 34.7251C63.1986 34.7251 58.4023 29.9972 58.4023 23.7415ZM217.025 13.3056V34.1774H212.599V20.7145L201.779 34.1774H198.238V13.3056H202.663V26.7397L213.512 13.3056H217.025ZM173.572 34.1774H169.089V13.3056H173.572V34.1774ZM162.095 27.0568C162.095 25.1829 160.81 23.8856 159.04 23.8856H154.5V30.3144H159.04C160.81 30.3144 162.095 28.9307 162.095 27.0568ZM166.548 27.0568C166.548 31.2369 163.551 34.1774 159.182 34.1774H150.075V13.3056H154.529V20.0514H159.582C163.865 20.0514 166.548 22.8479 166.548 27.0568Z" fill="#C3C9CD"/>
</g>
<defs>
<clipPath id="clip0_1_1050">
<rect width="242" height="48" fill="white"/>
</clipPath>
</defs>
</svg>
