<svg width="74" height="74" viewBox="0 0 74 74" fill="none" xmlns="http://www.w3.org/2000/svg">
<g clip-path="url(#clip0_1_1054)">
<path d="M74 43.4951H0V47.8286H74V43.4951Z" fill="#C3C9CD"/>
<path d="M0 74.0002H4.52947V69.0922H30.4489V52.1572H0V74.0002ZM4.52947 56.4908H25.9194V64.7612H4.52947V56.4908Z" fill="#C3C9CD"/>
<path d="M34.8789 69.0922H52.0315V74.0002H56.755V69.0922H73.9999V52.1572H34.8789V69.0922ZM56.755 56.4908H69.4722V64.7612H56.755V56.4908ZM39.4109 56.4908H52.0315V64.7612H39.4109V56.4908Z" fill="#C3C9CD"/>
<path d="M39.2715 0H21.8613V39.2226H39.2715V0ZM34.7281 34.8714H26.4085V4.34693H34.7281V34.8714Z" fill="#C3C9CD"/>
<path d="M48.2706 13.0489L56.5901 4.34563V39.2226H61.1355V13.0463L69.4525 4.3494V39.2226H74.0004V0H67.6151L61.1355 6.75503V0H54.7527L43.7227 11.4V39.2226H48.2706V13.0489Z" fill="#C3C9CD"/>
<path d="M12.8637 39.2226H17.4109V0H11.0274L0 11.4V39.2226H12.8637ZM4.54732 13.0489L12.8637 4.3494V34.8714H4.54732V13.0489Z" fill="#C3C9CD"/>
</g>
<defs>
<clipPath id="clip0_1_1054">
<rect width="74" height="74" fill="white"/>
</clipPath>
</defs>
</svg>
