<svg width="76" height="76" viewBox="0 0 76 76" fill="none" xmlns="http://www.w3.org/2000/svg">
<path d="M0 39.4646C0 38.4678 0 37.471 0 36.4742C0.0262267 36.3572 0.0654172 36.2415 0.0765692 36.1231C0.147145 35.3737 0.203666 34.6229 0.279354 33.8741C0.539194 31.3034 1.0742 28.7891 1.87183 26.3327C3.96663 19.8814 7.5269 14.3694 12.5484 9.81397C17.1691 5.62214 22.5134 2.75067 28.5526 1.17955C31.2191 0.48584 33.9344 0.120309 36.6847 2.36441e-06C37.5859 2.36441e-06 38.487 7.87068e-07 39.3882 0C39.7155 0.0215389 40.0426 0.0464717 40.3701 0.064054C42.2175 0.163226 44.0448 0.412209 45.854 0.795944C52.8752 2.28519 59.0011 5.49843 64.1962 10.4402C69.6669 15.6441 73.2741 21.9428 75.0207 29.2932C75.5298 31.4355 75.8684 33.6066 75.9321 35.8136C75.9547 36.2769 75.9774 36.7403 76 37.2036V38.7353C75.9774 39.1986 75.9547 39.6619 75.9321 40.1253C75.9252 40.3925 75.9311 40.6608 75.9093 40.9269C75.7697 42.6234 75.549 44.3098 75.1745 45.9708C72.9983 55.6225 67.8775 63.3328 59.8276 69.073C55.3391 72.2736 50.3457 74.3252 44.9253 75.3297C43.5033 75.5933 42.0699 75.7773 40.6248 75.8593C40.2783 75.862 39.9316 75.8584 39.5855 75.8703C39.4212 75.8759 39.2578 75.9112 39.094 75.933H36.9789C36.9107 75.9132 36.8429 75.8778 36.7743 75.8763C36.3324 75.8665 35.8903 75.8641 35.4482 75.8593C34.9524 75.8163 34.456 75.7793 33.9609 75.7292C31.3902 75.4692 28.8754 74.937 26.4187 74.1406C20.0654 72.0809 14.6166 68.5973 10.0918 63.6871C5.82046 59.0518 2.88532 53.6757 1.28171 47.5779C0.656058 45.1988 0.27041 42.7802 0.129031 40.3229C0.112485 40.0353 0.0442655 39.7507 0 39.4646ZM40.8567 34.517C41.4329 34.4374 42.0209 34.406 42.5833 34.2695C44.6113 33.777 46.054 32.5878 46.7861 30.6015C47.1023 29.7437 47.193 28.8503 47.1214 27.9455C46.9384 25.6333 45.8283 23.944 43.6595 23.0583C41.8424 22.3163 39.9757 22.3229 38.1435 23.0183C36.4466 23.6625 35.3294 24.8862 34.8219 26.6376C34.5687 27.5111 34.5114 28.4051 34.6362 29.3087C34.9173 31.3427 35.9371 32.8612 37.7828 33.7945C38.7454 34.2812 39.7802 34.4634 40.8567 34.517ZM57.3038 28.5673C57.1937 28.3785 57.1207 28.257 57.0512 28.1335C56.1403 26.5143 55.2225 24.8987 54.3255 23.2718C54.1487 22.951 53.9336 22.8278 53.5711 22.837C52.7213 22.8587 51.8705 22.8437 51.0201 22.844C50.3661 22.8442 50.2928 22.9179 50.2927 23.5807C50.2923 26.8609 50.2925 30.141 50.2926 33.4212C50.2926 33.5063 50.2895 33.5916 50.2947 33.6763C50.315 34.007 50.4414 34.1432 50.7679 34.1456C51.6425 34.1522 52.5173 34.1519 53.392 34.1462C53.7513 34.1438 53.8874 33.9957 53.8891 33.6262C53.8901 33.4077 53.8769 33.1891 53.8702 32.9705C53.8313 31.6834 53.7918 30.3964 53.7547 29.1092C53.7519 29.0124 53.7663 28.9152 53.7728 28.8181C53.9072 28.9398 53.9809 29.0644 54.0535 29.1896C54.9434 30.7231 55.8369 32.2545 56.7193 33.7923C56.8622 34.0412 57.0341 34.1575 57.3288 34.1534C58.3006 34.14 59.2726 34.1501 60.2445 34.1475C60.6809 34.1464 60.8169 34.0168 60.8172 33.5885C60.8192 30.199 60.8191 26.8095 60.8173 23.42C60.817 22.9889 60.6776 22.8473 60.2545 22.8453C59.4284 22.8414 58.6023 22.8414 57.7761 22.8453C57.3469 22.8473 57.2075 22.993 57.2192 23.4197C57.2454 24.379 57.2835 25.3381 57.3011 26.2976C57.3145 27.0238 57.3038 27.7504 57.3038 28.5673ZM47.5732 47.2545C47.7628 47.1566 47.8827 47.0992 47.9984 47.0342C48.5036 46.7502 48.8776 46.3492 49.0773 45.7991C49.5974 44.3658 48.9591 42.8973 47.559 42.2989C46.948 42.0377 46.3028 41.8965 45.6464 41.8847C43.9823 41.855 42.3174 41.8612 40.6529 41.86C40.326 41.8598 40.199 42.0014 40.1842 42.3302C40.1809 42.403 40.1833 42.476 40.1833 42.5489C40.1833 45.854 40.1832 49.159 40.1834 52.4641C40.1834 52.5613 40.1778 52.6592 40.1875 52.7555C40.2098 52.9778 40.3304 53.1096 40.5498 53.1491C40.6326 53.164 40.7192 53.1604 40.804 53.1604C42.3108 53.1609 43.8176 53.171 45.3241 53.1543C45.7956 53.1491 46.2711 53.0996 46.7361 53.02C47.489 52.891 48.1764 52.6016 48.762 52.0888C50.042 50.968 50.2618 48.2088 47.8357 47.3538C47.7701 47.3307 47.7057 47.3047 47.5732 47.2545ZM33.0107 51.5109C33.1555 51.9168 33.2926 52.3054 33.4328 52.693C33.5808 53.1018 33.6612 53.1595 34.0994 53.1603C35.0472 53.1621 35.9951 53.1616 36.9429 53.1598C37.0393 53.1596 37.1398 53.1591 37.2313 53.1336C37.4633 53.0688 37.5796 52.8601 37.5217 52.6257C37.5015 52.5438 37.4652 52.4656 37.4344 52.3864C36.1252 49.0265 34.8162 45.6665 33.5061 42.3069C33.3412 41.8842 33.3001 41.8578 32.8311 41.8573C31.8225 41.8562 30.814 41.8564 29.8054 41.8572C29.3051 41.8575 29.2804 41.8749 29.0907 42.356C27.7771 45.6882 26.4638 49.0205 25.1507 52.3528C25.1151 52.4432 25.0725 52.5321 25.0491 52.6257C24.9902 52.8605 25.1076 53.0686 25.3408 53.1337C25.4323 53.1592 25.5327 53.1596 25.6291 53.1598C26.5405 53.1616 27.4519 53.1623 28.3633 53.1602C28.7924 53.1593 28.8795 53.0937 29.0203 52.682C29.1532 52.2937 29.2839 51.9046 29.4173 51.5109H33.0107ZM28.6176 34.4737C28.8445 34.4495 29.2827 34.4252 29.7127 34.3527C30.7125 34.1843 31.6238 33.801 32.4126 33.1531C32.7185 32.9018 32.739 32.7139 32.4908 32.4103C32.083 31.9116 31.6666 31.42 31.2538 30.9255C31.1136 30.7575 30.9783 30.5851 30.8321 30.4226C30.5971 30.1614 30.4254 30.1495 30.1398 30.3625C30.0814 30.406 30.0262 30.454 29.9666 30.4959C28.8412 31.2871 27.026 30.9684 26.4726 29.3605C26.3521 29.0105 26.3132 28.6507 26.3365 28.2829C26.4116 27.099 27.191 26.2266 28.3378 26.0781C28.9889 25.9938 29.5905 26.1505 30.1254 26.5467C30.4224 26.7667 30.5951 26.7566 30.8182 26.4927C31.391 25.815 31.9582 25.1326 32.5175 24.4438C32.7169 24.1983 32.6874 23.9718 32.4301 23.7848C32.1755 23.5997 31.9084 23.425 31.6276 23.2841C30.1881 22.5616 28.6633 22.3585 27.0887 22.6503C25.2543 22.9903 23.8343 23.9522 22.9353 25.6135C22.3705 26.6572 22.1571 27.7888 22.2596 28.9624C22.4723 31.3988 23.6965 33.1194 25.9808 34.0445C26.7556 34.3583 27.5743 34.4676 28.6176 34.4737ZM19.0988 49.8939C19.0988 49.6987 19.0988 49.5547 19.0988 49.4107C19.0988 47.0894 19.0997 44.7681 19.098 42.4468C19.0977 41.984 18.9738 41.859 18.5196 41.8577C17.6203 41.8551 16.7209 41.8549 15.8215 41.8578C15.3864 41.8592 15.2557 41.9872 15.2555 42.422C15.2536 45.8128 15.2536 49.2036 15.2557 52.5944C15.2559 53.0168 15.4006 53.1592 15.8308 53.1597C17.982 53.1624 20.1331 53.1626 22.2843 53.1595C22.7118 53.1588 22.838 53.0222 22.8397 52.5822C22.8425 51.8773 22.8427 51.1724 22.8397 50.4675C22.8378 50.0112 22.7179 49.8962 22.2472 49.8946C21.5666 49.8922 20.886 49.8939 20.2054 49.8939C19.8548 49.8939 19.5042 49.8939 19.0988 49.8939ZM19.0987 28.516C19.0987 26.8161 19.1003 25.1163 19.0976 23.4164C19.0969 22.9881 18.956 22.8486 18.5317 22.8449C18.0461 22.8407 17.5604 22.8437 17.0747 22.8437C16.6497 22.8438 16.2247 22.8398 15.7998 22.8453C15.399 22.8504 15.2633 22.9931 15.2548 23.4012C15.2528 23.4983 15.2543 23.5955 15.2543 23.6926C15.2543 26.7646 15.2543 29.8365 15.2543 32.9084C15.2543 33.1512 15.2492 33.3942 15.2558 33.6369C15.2657 34.0013 15.4043 34.1419 15.7664 34.1469C16.2156 34.153 16.6649 34.1487 17.1142 34.1487C17.5999 34.1487 18.0856 34.1524 18.5712 34.1471C18.9543 34.1429 19.0871 34.0043 19.0983 33.6156C19.1007 33.5307 19.0988 33.4456 19.0988 33.3606C19.0989 31.7458 19.0989 30.1309 19.0987 28.516ZM54.4705 53.4037C55.6239 53.4076 56.5555 52.497 56.5567 51.3646C56.5578 50.251 55.6065 49.2851 54.4959 49.2723C53.3364 49.2589 52.3514 50.2151 52.3525 51.353C52.3536 52.495 53.2879 53.3996 54.4705 53.4037Z" fill="#C3C9CD"/>
</svg>
