<svg width="294" height="53" viewBox="0 0 294 53" fill="none" xmlns="http://www.w3.org/2000/svg">
<path d="M229.641 52.4482H214.993L176.861 14.5742L138.786 52.4463H124.137L176.861 0L229.641 52.4482ZM287.59 23.9443H247.953C245.637 23.9443 242.89 24.6418 242.89 27.9092V39.2158C242.89 42.3763 245.906 43.5 247.953 43.5L287.645 43.5547L293.999 52.4482H245.206C238.851 52.2865 233.465 47.6263 233.465 42.1621V26.4648C233.465 19.6608 238.473 15.0537 245.206 15.0537H293.999L287.59 23.9443ZM55.0957 15.0527L46.1533 24.001H9.4248V52.4473H0V15.0527H55.0957ZM118.158 52.4473H106.042L99.418 45.8037H58.002L51.3242 52.4473H39.207L78.6299 13.1777L118.158 52.4473ZM66.3516 37.3926L66.0811 37.6621H91.125L90.8545 37.3926L78.6299 25.2314L66.3516 37.3926Z" fill="#C3C9CD"/>
</svg>
