<svg width="239" height="50" viewBox="0 0 239 50" fill="none" xmlns="http://www.w3.org/2000/svg">
<path d="M27.8818 38.2239C34.0714 37.4712 39.0715 32.6761 39.8612 26.7354C40.1369 24.7078 39.9233 22.6465 39.2367 20.7106C38.5501 18.7748 37.4089 17.016 35.9012 15.5701C34.3936 14.1243 32.5597 13.0299 30.5411 12.3714C28.5225 11.713 26.3731 11.508 24.2588 11.7725C18.0643 12.5299 13.0642 17.325 12.2794 23.2609C12.0037 25.2885 12.2174 27.3498 12.9039 29.2857C13.5905 31.2216 14.7317 32.9803 16.2394 34.4262C17.7471 35.8721 19.5809 36.9665 21.5995 37.6249C23.6182 38.2834 25.7675 38.4883 27.8818 38.2239ZM28.7258 0.127807C34.6849 0.729424 40.2481 3.2747 44.4851 7.33807C48.7221 11.4014 51.3762 16.7366 52.0035 22.4515C53.6373 38.2617 39.8958 51.4401 23.4049 49.8732C17.4467 49.2706 11.8847 46.7249 7.64866 42.6616C3.41263 38.5983 0.75929 33.2637 0.132163 27.5496C-1.50162 11.7393 12.2399 -1.43902 28.7258 0.127807ZM65.9918 1.11713H104.151C105.602 1.11713 106.422 2.70762 105.548 3.81528L79.146 37.2203H99.8324C103.603 37.2203 106.57 40.5102 105.79 44.2592C105.217 47.0094 102.527 48.8839 99.6053 48.8839H58.1635C56.7272 48.8839 55.9127 47.3076 56.7765 46.2142L83.1984 12.7807H66.2189C63.2968 12.7807 60.6068 10.9015 60.0342 8.156C59.2494 4.40698 62.2208 1.11713 65.9918 1.11713ZM231.596 1.24967C235.535 0.454426 239 3.31352 239 6.94893V47.1988C239 48.6046 237.307 49.3857 236.162 48.5147L203.244 23.4692V43.0616C203.244 46.697 199.779 49.5561 195.84 48.7609C193.017 48.1928 191.082 45.6698 191.082 42.9054V2.79756C191.082 1.39168 192.775 0.610635 193.92 1.48162L226.843 26.5271V7.10514C226.843 4.34071 228.783 1.82244 231.601 1.24967H231.596ZM145.884 0C166.038 0 182.375 11.1902 182.375 24.9934C182.375 38.7966 166.038 49.9869 145.884 49.9869C125.731 49.9869 109.393 38.7966 109.393 24.9934C109.393 11.1902 125.731 0 145.884 0ZM145.884 11.6636C131.96 11.6636 121.555 18.7025 121.555 24.9934C121.555 31.2844 131.96 38.3233 145.884 38.3233C159.808 38.3233 170.213 31.2891 170.213 24.9934C170.213 18.6977 159.808 11.6636 145.884 11.6636Z" fill="#C3C9CD"/>
</svg>
