<svg width="16" height="16" viewBox="0 0 16 16" fill="none" xmlns="http://www.w3.org/2000/svg">
<path d="M14.7281 11.4889C14.0638 10.8247 13.4014 10.1604 12.7371 9.49799C12.2104 8.94445 11.5194 8.94445 10.9658 9.49799C10.5516 9.91225 10.1355 10.3265 9.72129 10.7425C9.61057 10.8532 9.52665 10.8532 9.38915 10.7979C9.13919 10.6318 8.83563 10.5211 8.58564 10.3551C7.39645 9.6087 6.37332 8.63912 5.48765 7.53206C5.04483 6.97852 4.65734 6.3982 4.38057 5.73397C4.32523 5.59647 4.32523 5.51256 4.43593 5.40185C4.87876 5.01437 5.26624 4.60012 5.68048 4.23943C6.26259 3.65912 6.26259 2.99487 5.68048 2.41455C5.32158 2.05387 5.01625 1.75032 4.68592 1.4182C4.32523 1.0593 3.99311 0.727183 3.66099 0.395055C3.13602 -0.131685 2.44323 -0.131685 1.89147 0.395055C1.47544 0.809313 1.06119 1.22357 0.645133 1.63962C0.257674 2.02709 0.0648166 2.4967 0.00945287 3.02345C-0.045889 3.88053 0.146947 4.71083 0.452275 5.51256C1.06119 7.19994 2.00218 8.63912 3.13602 9.99438C4.65735 11.821 6.51079 13.287 8.641 14.3119C9.61057 14.7548 10.6069 15.1422 11.6568 15.1976C12.4318 15.2244 13.0693 15.0315 13.5942 14.4494C13.9531 14.062 14.3692 13.7031 14.7281 13.3156C15.2816 12.7335 15.2816 12.0425 14.7281 11.4889Z" fill="url(#paint0_linear_20_181)"/>
<defs>
<linearGradient id="paint0_linear_20_181" x1="-0.578722" y1="7.20321" x2="20.4975" y2="7.26989" gradientUnits="userSpaceOnUse">
<stop stop-color="#298C70"/>
<stop offset="1" stop-color="#5CEC94"/>
</linearGradient>
</defs>
</svg>
