<svg width="25" height="25" viewBox="0 0 25 25" fill="none" xmlns="http://www.w3.org/2000/svg">
<path d="M12.5 0C19.4038 0 25 5.59625 25 12.5C25 19.4037 19.4038 25 12.5 25C10.291 25.0038 8.12075 24.4192 6.21252 23.3063L0.00501932 25L1.69502 18.79C0.581217 16.8812 -0.00385203 14.71 1.90859e-05 12.5C1.90859e-05 5.59625 5.59627 0 12.5 0ZM8.24002 6.625L7.99002 6.635C7.82838 6.64614 7.67045 6.68859 7.52502 6.76C7.38949 6.83689 7.26572 6.93287 7.15752 7.045C7.00752 7.18625 6.92252 7.30875 6.83127 7.4275C6.36892 8.02863 6.11999 8.76664 6.12377 9.525C6.12627 10.1375 6.28627 10.7338 6.53627 11.2913C7.04752 12.4187 7.88877 13.6125 8.99877 14.7188C9.26627 14.985 9.52877 15.2525 9.81127 15.5013C11.1906 16.7155 12.8341 17.5912 14.6113 18.0588L15.3213 18.1675C15.5525 18.18 15.7838 18.1625 16.0163 18.1512C16.3803 18.1321 16.7356 18.0335 17.0575 17.8625C17.2211 17.7779 17.3808 17.6862 17.5363 17.5875C17.5363 17.5875 17.5892 17.5517 17.6925 17.475C17.8613 17.35 17.965 17.2612 18.105 17.115C18.21 17.0067 18.2975 16.8808 18.3675 16.7375C18.465 16.5338 18.5625 16.145 18.6025 15.8212C18.6325 15.5737 18.6238 15.4388 18.62 15.355C18.615 15.2213 18.5038 15.0825 18.3825 15.0238L17.655 14.6975C17.655 14.6975 16.5675 14.2238 15.9025 13.9213C15.8329 13.8909 15.7584 13.8736 15.6825 13.87C15.597 13.8611 15.5105 13.8706 15.429 13.898C15.3475 13.9254 15.2728 13.97 15.21 14.0287C15.2038 14.0262 15.12 14.0975 14.2163 15.1925C14.1644 15.2622 14.0929 15.3149 14.011 15.3438C13.9291 15.3728 13.8404 15.3767 13.7563 15.355C13.6748 15.3333 13.595 15.3057 13.5175 15.2725C13.3625 15.2075 13.3088 15.1825 13.2025 15.1375C12.4849 14.8249 11.8206 14.4018 11.2338 13.8838C11.0763 13.7463 10.93 13.5962 10.78 13.4513C10.2883 12.9803 9.85971 12.4475 9.50502 11.8663L9.43127 11.7475C9.3791 11.6672 9.33632 11.5813 9.30377 11.4913C9.25627 11.3075 9.38002 11.16 9.38002 11.16C9.38002 11.16 9.68377 10.8275 9.82502 10.6475C9.96252 10.4725 10.0788 10.3025 10.1538 10.1813C10.3013 9.94375 10.3475 9.7 10.27 9.51125C9.92002 8.65625 9.55835 7.80583 9.18502 6.96C9.11127 6.7925 8.89252 6.6725 8.69377 6.64875C8.62627 6.64042 8.55877 6.63375 8.49127 6.62875C8.32343 6.61912 8.15513 6.62079 7.98752 6.63375L8.24002 6.625Z" fill="#9F9F9F"/>
</svg>
