<svg width="25" height="18" viewBox="0 0 25 18" fill="none" xmlns="http://www.w3.org/2000/svg">
<path d="M10 12.5L16.4875 8.75L10 5V12.5ZM24.45 2.7125C24.6125 3.3 24.725 4.0875 24.8 5.0875C24.8875 6.0875 24.925 6.95 24.925 7.7L25 8.75C25 11.4875 24.8 13.5 24.45 14.7875C24.1375 15.9125 23.4125 16.6375 22.2875 16.95C21.7 17.1125 20.625 17.225 18.975 17.3C17.35 17.3875 15.8625 17.425 14.4875 17.425L12.5 17.5C7.2625 17.5 4 17.3 2.7125 16.95C1.5875 16.6375 0.8625 15.9125 0.55 14.7875C0.3875 14.2 0.275 13.4125 0.2 12.4125C0.1125 11.4125 0.0749999 10.55 0.0749999 9.8L0 8.75C0 6.0125 0.2 4 0.55 2.7125C0.8625 1.5875 1.5875 0.8625 2.7125 0.55C3.3 0.3875 4.375 0.275 6.025 0.2C7.65 0.1125 9.1375 0.0749999 10.5125 0.0749999L12.5 0C17.7375 0 21 0.2 22.2875 0.55C23.4125 0.8625 24.1375 1.5875 24.45 2.7125Z" fill="#9F9F9F"/>
</svg>
